<?xml version="1.0" standalone="no"?>
<!DOCTYPE svg PUBLIC "-//W3C//DTD SVG 20010904//EN"
 "http://www.w3.org/TR/2001/REC-SVG-20010904/DTD/svg10.dtd">
<svg version="1.0" xmlns="http://www.w3.org/2000/svg"
 width="1280.000000pt" height="1234.000000pt" viewBox="0 0 1280.000000 1234.000000"
 preserveAspectRatio="xMidYMid meet">
<metadata>
Created by potrace 1.15, written by Peter Selinger 2001-2017
</metadata>
<g transform="translate(0.000000,1234.000000) scale(0.100000,-0.100000)"
fill="#000000" stroke="none">
<path d="M4299 12312 c-59 -38 -126 -113 -150 -168 -37 -82 -35 -185 5 -239
14 -19 16 -18 71 19 107 74 177 190 178 296 0 67 -18 120 -42 120 -10 0 -37
-13 -62 -28z"/>
<path d="M8423 12314 c-12 -19 -17 -47 -17 -94 0 -94 41 -176 129 -258 63 -60
64 -61 27 -48 -73 26 -168 37 -217 26 -84 -19 -143 -58 -172 -114 -15 -28 -14
-31 7 -48 35 -28 98 -42 200 -42 87 -1 100 2 148 28 65 36 107 88 93 114 -8
15 -6 18 12 18 36 -1 49 38 44 134 -4 91 -17 126 -69 192 -27 34 -140 118
-159 118 -5 0 -16 -12 -26 -26z"/>
<path d="M4683 12236 c-72 -18 -153 -74 -191 -132 -18 -26 -32 -51 -32 -56 0
-17 148 -8 204 13 84 31 208 154 176 174 -21 13 -108 14 -157 1z"/>
<path d="M7965 12231 c-9 -16 38 -83 81 -116 78 -59 195 -94 269 -81 l35 7
-19 38 c-24 45 -85 102 -143 132 -50 26 -210 40 -223 20z"/>
<path d="M3890 12166 c-126 -93 -200 -213 -208 -337 -5 -84 6 -128 44 -185 14
-20 24 -37 22 -38 -33 -23 -260 -204 -338 -271 -103 -88 -104 -88 -50 -28 173
193 229 417 149 603 -29 67 -49 78 -94 50 -56 -34 -168 -163 -203 -231 -67
-132 -81 -276 -38 -380 31 -77 63 -119 89 -119 16 0 -27 -49 -174 -197 -107
-109 -217 -223 -243 -253 -52 -59 -51 -56 7 33 49 74 93 172 120 267 31 110
31 280 -1 372 -28 80 -95 178 -123 178 -47 0 -184 -165 -248 -300 -115 -241
-85 -496 76 -639 l53 -47 -71 -90 c-99 -123 -227 -303 -316 -442 -41 -64 -76
-119 -79 -121 -3 -3 9 28 27 69 73 171 103 320 102 495 -2 208 -56 357 -175
478 -37 38 -73 67 -80 65 -39 -13 -169 -208 -219 -331 -56 -136 -73 -219 -73
-367 1 -119 4 -144 27 -217 32 -95 89 -186 155 -244 61 -53 128 -93 147 -85 8
3 -8 -35 -36 -87 -114 -207 -252 -516 -328 -732 -46 -132 -65 -177 -56 -135
36 170 46 234 54 343 20 259 -19 489 -115 686 -48 98 -67 125 -137 196 -56 56
-103 93 -145 114 -76 38 -68 44 -141 -104 -116 -237 -168 -505 -142 -725 17
-137 36 -202 93 -319 43 -89 62 -117 132 -187 66 -66 99 -90 172 -125 66 -32
101 -44 136 -44 38 0 47 -3 43 -15 -112 -380 -183 -776 -222 -1235 l-7 -90 -7
150 c-20 418 -138 806 -327 1075 -62 88 -184 213 -256 262 -117 80 -289 144
-320 119 -15 -13 -66 -211 -87 -346 -19 -118 -16 -418 5 -534 62 -337 221
-611 449 -772 130 -91 303 -144 456 -137 l81 3 0 -175 c0 -401 60 -844 165
-1219 36 -131 40 -164 10 -84 -33 89 -158 335 -234 462 -247 411 -556 728
-859 880 -148 75 -371 122 -497 106 l-58 -7 6 -186 c13 -367 74 -633 212 -917
95 -197 187 -328 334 -476 202 -202 380 -305 613 -353 96 -20 262 -21 360 -2
75 15 230 67 253 86 10 8 22 -14 55 -97 201 -510 535 -1090 868 -1508 54 -67
51 -65 -83 59 -317 294 -583 490 -905 666 -597 327 -1151 406 -1536 218 -76
-37 -76 -23 -7 -198 249 -632 695 -1143 1228 -1405 490 -241 977 -242 1363 -3
50 31 127 94 188 153 l103 100 67 -73 c88 -97 338 -330 489 -456 390 -325 868
-624 1287 -806 43 -18 76 -35 75 -37 -2 -1 -41 8 -88 21 -409 118 -974 235
-1359 281 -704 85 -1341 -7 -1725 -247 -142 -90 -335 -268 -335 -310 0 -22
265 -290 385 -389 440 -366 909 -609 1419 -734 225 -56 399 -77 636 -77 323 0
542 40 825 153 129 52 177 88 267 201 270 340 431 589 522 807 l38 90 52 -20
c89 -36 208 -102 286 -159 121 -90 318 -294 405 -419 l27 -40 -74 -113 c-174
-264 -322 -565 -403 -821 -19 -61 -35 -116 -35 -123 0 -12 24 -21 100 -37 24
-6 26 -2 57 106 46 166 96 294 179 462 67 137 176 322 231 392 21 28 21 28 37
8 8 -11 52 -81 97 -155 156 -260 298 -578 339 -762 13 -56 13 -57 44 -51 105
21 107 26 72 139 -83 262 -237 576 -413 842 -41 62 -72 119 -70 125 12 28 182
220 278 313 123 118 219 188 349 254 124 62 138 66 146 43 43 -122 153 -326
262 -483 94 -136 355 -481 383 -507 34 -31 218 -115 332 -152 599 -192 1355
-96 2042 258 269 138 501 298 732 503 127 112 333 325 333 343 0 41 -161 195
-299 286 -208 137 -475 229 -811 276 -175 25 -679 25 -900 0 -418 -47 -880
-139 -1339 -268 -79 -22 -145 -38 -147 -36 -2 2 22 14 54 27 123 49 425 204
574 293 393 237 728 500 1092 858 l189 186 67 -67 c173 -176 404 -299 640
-341 96 -17 353 -17 450 0 734 130 1389 726 1725 1570 43 107 55 149 48 160
-6 9 -46 31 -89 49 -380 160 -882 92 -1430 -193 -360 -186 -688 -424 -994
-720 -74 -71 -128 -121 -120 -109 8 12 64 86 124 165 348 460 608 934 827
1507 8 22 9 22 28 3 10 -10 45 -29 77 -41 408 -152 836 -33 1175 327 325 346
509 840 513 1378 l1 180 -135 -1 c-114 -2 -149 -6 -224 -28 -229 -68 -447
-212 -652 -429 -266 -283 -475 -612 -640 -1009 -26 -64 -49 -116 -51 -115 -1
2 9 41 23 87 49 165 114 447 143 620 42 245 60 409 73 675 l12 230 95 3 c125
4 205 23 316 76 345 164 566 562 582 1046 7 209 -15 386 -74 600 l-19 65 -44
-1 c-25 0 -77 -13 -117 -28 -380 -145 -660 -623 -738 -1261 -17 -134 -25 -167
-25 -99 0 63 -37 348 -65 501 -29 153 -80 374 -120 509 -14 49 -25 91 -25 95
0 4 17 10 38 13 20 4 80 28 132 53 210 101 350 313 391 592 26 184 -4 434 -76
626 -41 109 -126 265 -144 265 -27 0 -115 -56 -175 -111 -188 -172 -286 -446
-286 -799 0 -126 7 -200 35 -360 7 -46 1 -32 -71 150 -75 193 -218 490 -330
690 -27 48 -30 57 -11 35 l24 -29 67 43 c311 203 347 661 84 1068 -56 86 -106
143 -125 143 -30 0 -140 -125 -177 -202 -50 -101 -67 -174 -73 -309 -9 -198
36 -400 132 -591 24 -49 43 -88 41 -88 -2 0 -23 33 -47 73 -98 166 -292 442
-433 617 -165 205 -489 553 -561 603 -16 11 58 -69 165 -179 107 -110 211
-220 230 -244 l35 -45 -55 48 c-65 57 -190 121 -280 143 -87 22 -223 15 -303
-16 -73 -28 -178 -106 -191 -143 -9 -24 -6 -31 24 -62 41 -42 187 -119 322
-169 85 -31 108 -36 187 -36 50 0 114 5 143 11 65 14 155 58 202 99 l34 30
105 -138 c88 -116 305 -433 338 -495 6 -10 -32 24 -83 76 -105 105 -191 161
-313 203 -68 24 -97 28 -195 28 -96 1 -127 -3 -189 -23 -66 -22 -210 -106
-226 -132 -10 -15 60 -102 145 -181 269 -250 659 -324 916 -173 32 19 44 22
52 12 17 -20 167 -326 217 -442 54 -123 165 -413 165 -429 0 -6 -18 22 -40 63
-123 224 -321 389 -547 453 -110 31 -276 31 -388 0 -104 -30 -215 -88 -215
-113 0 -30 108 -204 176 -283 214 -251 521 -406 805 -406 89 0 222 24 256 46
12 7 24 10 26 6 12 -19 89 -345 116 -487 45 -237 100 -679 87 -692 -2 -3 -10
22 -16 54 -7 32 -26 96 -42 143 -126 356 -388 601 -722 675 -137 30 -387 12
-509 -37 -33 -13 -33 -20 19 -177 45 -135 108 -266 185 -382 71 -106 245 -287
354 -367 91 -67 259 -154 360 -185 137 -43 345 -62 374 -34 11 10 12 -25 7
-208 -14 -460 -72 -838 -192 -1248 -24 -82 -46 -152 -49 -156 -4 -3 -4 5 -1
19 46 191 59 426 31 591 -40 242 -138 445 -297 614 -140 150 -353 269 -563
315 -80 18 -255 30 -322 24 l-61 -7 -7 -76 c-14 -158 30 -439 102 -645 49
-142 139 -319 240 -471 67 -100 117 -160 217 -261 174 -173 313 -264 501 -325
39 -12 71 -23 73 -24 7 -5 -124 -304 -209 -475 -190 -384 -394 -709 -662
-1052 -55 -71 -102 -128 -104 -128 -5 0 -2 5 45 79 93 146 182 370 222 556 31
142 38 386 16 525 -62 389 -298 732 -646 938 -93 55 -338 161 -373 162 -43 0
-154 -316 -198 -565 -27 -152 -36 -460 -20 -630 53 -549 229 -966 539 -1274
l124 -123 -73 -75 c-498 -504 -1112 -933 -1720 -1202 -130 -57 -160 -65 -83
-23 85 47 196 128 294 215 299 263 503 600 585 967 26 117 31 390 10 524 -43
275 -154 529 -335 766 -84 109 -333 360 -358 360 -25 0 -189 -156 -275 -262
-268 -331 -479 -843 -571 -1385 -40 -237 -88 -757 -90 -983 l-1 -175 63 -124
c35 -68 62 -124 60 -125 -2 -1 -37 -15 -78 -32 -196 -77 -417 -255 -621 -502
-44 -53 -84 -97 -88 -97 -4 0 -36 34 -70 75 -266 319 -451 462 -714 554 -18 6
-18 7 1 33 32 45 79 144 96 203 24 77 31 261 17 420 -22 254 -71 675 -92 785
-84 453 -251 898 -445 1191 -105 157 -349 424 -388 424 -8 0 -46 -27 -83 -59
-320 -278 -538 -646 -609 -1026 -23 -123 -26 -410 -5 -525 21 -118 78 -294
130 -404 96 -202 199 -346 371 -516 123 -122 226 -202 368 -287 48 -29 94 -57
102 -63 8 -5 -39 13 -105 39 -593 240 -1163 626 -1698 1150 l-168 165 33 25
c66 51 162 148 223 226 206 265 338 596 402 1005 25 161 25 600 0 745 -35 198
-84 362 -154 517 l-35 77 -87 -31 c-535 -189 -884 -594 -952 -1106 -16 -119
-6 -371 20 -490 41 -193 140 -437 240 -589 22 -35 39 -63 37 -63 -4 0 -146
181 -227 290 -175 236 -388 588 -529 876 -74 152 -205 453 -212 489 -2 12 16
22 72 41 488 165 922 748 1031 1384 18 105 18 362 0 383 -27 34 -274 18 -449
-28 -536 -141 -863 -676 -792 -1294 5 -47 8 -86 6 -88 -4 -5 -61 211 -96 366
-57 253 -103 586 -115 821 -3 63 -8 153 -10 200 l-5 85 142 1 c125 1 155 4
233 28 341 102 664 385 842 739 51 103 112 279 116 333 2 37 0 38 -46 56 -133
50 -381 61 -522 23 -74 -20 -207 -82 -272 -126 -248 -168 -424 -463 -472 -794
-8 -59 -9 -59 -10 -15 -3 118 43 507 85 725 27 138 81 365 115 478 19 65 21
67 37 48 47 -54 300 -72 464 -33 299 73 574 284 735 567 65 112 65 106 -24
153 -185 96 -370 111 -571 47 -215 -68 -433 -272 -542 -506 -16 -35 -29 -61
-30 -57 0 13 98 272 156 411 47 110 223 472 252 515 7 10 25 5 82 -22 233
-112 519 -76 774 97 119 81 264 236 251 269 -14 35 -149 114 -244 142 -79 23
-237 21 -330 -4 -131 -37 -251 -111 -353 -218 -32 -33 -58 -58 -58 -56 0 19
250 382 367 532 l65 83 36 -32 c142 -125 399 -141 627 -39 95 43 255 165 255
195 0 16 -65 75 -119 109 -118 75 -289 90 -439 40 -51 -17 -115 -48 -164 -81
l-81 -54 64 72 c35 40 128 138 206 218 l142 145 21 -27 c61 -77 182 -128 310
-129 132 -2 254 36 364 112 62 42 61 65 -4 123 -136 123 -324 140 -511 47 -33
-16 -57 -25 -54 -20 13 22 345 290 358 290 3 0 8 -11 11 -24 8 -32 86 -79 184
-112 87 -30 155 -28 254 4 69 23 148 69 148 86 0 30 -47 68 -137 113 -87 44
-102 48 -163 47 -41 -1 -94 -10 -136 -25 -38 -13 -73 -22 -78 -21 -5 2 -18 -5
-30 -15 -11 -10 8 14 45 52 114 122 140 182 141 326 1 116 -14 169 -45 169
-12 0 -42 -15 -67 -34z"/>
<path d="M8822 12158 c-66 -139 -17 -313 130 -460 89 -90 116 -99 145 -45 13
25 17 58 17 147 1 130 -11 167 -86 261 -40 51 -150 139 -173 139 -7 0 -22 -19
-33 -42z"/>
<path d="M9326 11947 c-105 -137 -75 -392 69 -582 50 -66 126 -145 141 -145 7
0 26 16 44 36 149 171 77 488 -154 675 -33 27 -64 49 -68 49 -4 0 -18 -15 -32
-33z"/>
<path d="M4287 11930 c-67 -21 -107 -45 -107 -64 0 -7 22 -34 49 -59 61 -57
136 -82 225 -74 65 6 149 30 179 52 17 12 17 15 3 43 -53 102 -207 148 -349
102z"/>
<path d="M3887 11705 c-20 -14 -37 -28 -37 -31 0 -2 18 8 40 22 35 23 47 34
37 34 -1 0 -19 -11 -40 -25z"/>
<path d="M8594 11671 c-90 -45 -144 -89 -144 -119 0 -13 18 -29 58 -50 185
-99 396 -77 510 52 18 20 32 40 32 44 0 12 -62 48 -135 77 -53 21 -91 29 -155
32 -83 4 -87 3 -166 -36z"/>
<path d="M9915 11589 c-78 -87 -110 -197 -103 -359 4 -86 11 -123 40 -207 19
-55 54 -135 78 -177 50 -88 135 -196 154 -196 7 0 36 25 65 55 179 189 166
500 -30 766 -49 67 -141 159 -157 159 -6 0 -26 -18 -47 -41z"/>
<path d="M9070 11586 c0 -2 8 -10 18 -17 15 -13 16 -12 3 4 -13 16 -21 21 -21
13z"/>
<path d="M9110 11558 c0 -3 53 -48 118 -101 64 -53 140 -116 167 -141 l50 -46
-60 35 c-207 122 -453 97 -579 -58 l-30 -37 21 -27 c39 -54 239 -128 373 -140
105 -9 227 30 304 97 59 53 55 71 -38 153 -44 40 -128 110 -186 156 -58 46
-113 91 -122 99 -10 8 -18 13 -18 10z"/>
</g>
</svg>
